EBGaramondVF-Compressed_Regular.ufo
<glyph name="percent" format="1">
  <advance width="411"/>
  <unicode hex="0025"/>
  <outline>
    <contour>
      <point x="107" y="-36" type="curve" smooth="yes"/>
      <point x="346" y="634" type="line"/>
      <point x="348" y="636"/>
      <point x="348" y="639"/>
      <point x="348" y="642" type="curve" smooth="yes"/>
      <point x="348" y="651"/>
      <point x="342" y="664"/>
      <point x="337" y="664" type="curve" smooth="yes"/>
      <point x="323" y="664"/>
      <point x="314" y="659"/>
      <point x="307" y="634" type="curve" smooth="yes"/>
      <point x="67" y="-36" type="line"/>
      <point x="66" y="-37"/>
      <point x="66" y="-40"/>
      <point x="66" y="-40" type="curve" smooth="yes"/>
      <point x="66" y="-51"/>
      <point x="74" y="-62"/>
      <point x="81" y="-62" type="curve" smooth="yes"/>
      <point x="92" y="-62"/>
      <point x="101" y="-59"/>
    </contour>
    <contour>
      <point x="171" y="449" type="curve" smooth="yes"/>
      <point x="171" y="530"/>
      <point x="148" y="615"/>
      <point x="102" y="615" type="curve" smooth="yes"/>
      <point x="51" y="615"/>
      <point x="19" y="527"/>
      <point x="19" y="438" type="curve" smooth="yes"/>
      <point x="19" y="354"/>
      <point x="43" y="263"/>
      <point x="91" y="263" type="curve" smooth="yes"/>
      <point x="146" y="263"/>
      <point x="171" y="357"/>
    </contour>
    <contour>
      <point x="66" y="449" type="curve" smooth="yes"/>
      <point x="66" y="513"/>
      <point x="71" y="593"/>
      <point x="95" y="593" type="curve" smooth="yes"/>
      <point x="121" y="593"/>
      <point x="124" y="505"/>
      <point x="124" y="437" type="curve" smooth="yes"/>
      <point x="124" y="370"/>
      <point x="122" y="282"/>
      <point x="96" y="282" type="curve" smooth="yes"/>
      <point x="68" y="282"/>
      <point x="66" y="377"/>
    </contour>
    <contour>
      <point x="392" y="169" type="curve" smooth="yes"/>
      <point x="392" y="250"/>
      <point x="368" y="335"/>
      <point x="322" y="335" type="curve" smooth="yes"/>
      <point x="271" y="335"/>
      <point x="239" y="247"/>
      <point x="239" y="158" type="curve" smooth="yes"/>
      <point x="239" y="74"/>
      <point x="263" y="-17"/>
      <point x="311" y="-17" type="curve" smooth="yes"/>
      <point x="367" y="-17"/>
      <point x="392" y="77"/>
    </contour>
    <contour>
      <point x="286" y="169" type="curve" smooth="yes"/>
      <point x="286" y="233"/>
      <point x="291" y="313"/>
      <point x="315" y="313" type="curve" smooth="yes"/>
      <point x="341" y="313"/>
      <point x="345" y="225"/>
      <point x="345" y="157" type="curve" smooth="yes"/>
      <point x="345" y="90"/>
      <point x="343" y="2"/>
      <point x="317" y="2" type="curve" smooth="yes"/>
      <point x="288" y="2"/>
      <point x="286" y="97"/>
    </contour>
  </outline>
</glyph>
<glyph name="ampersand" format="1">
  <advance width="451"/>
  <unicode hex="0026"/>
  <outline>
    <contour>
      <point x="237" y="108" type="curve"/>
      <point x="241" y="114" type="line"/>
      <point x="248" y="99" type="line" smooth="yes"/>
      <point x="282" y="23"/>
      <point x="293" y="-14"/>
      <point x="335" y="-14" type="curve" smooth="yes"/>
      <point x="368" y="-14"/>
      <point x="415" y="37"/>
      <point x="415" y="54" type="curve" smooth="yes"/>
      <point x="415" y="62"/>
      <point x="414" y="65"/>
      <point x="410" y="65" type="curve" smooth="yes"/>
      <point x="407" y="65"/>
      <point x="404" y="62"/>
      <point x="401" y="58" type="curve" smooth="yes"/>
      <point x="390" y="45"/>
      <point x="376" y="40"/>
      <point x="359" y="40" type="curve" smooth="yes"/>
      <point x="333" y="40"/>
      <point x="305" y="81"/>
      <point x="285" y="131" type="curve" smooth="yes"/>
      <point x="268" y="162" type="line"/>
      <point x="268" y="162"/>
      <point x="371" y="336"/>
      <point x="378" y="347" type="curve" smooth="yes"/>
      <point x="390" y="367"/>
      <point x="409" y="379"/>
      <point x="426" y="381" type="curve"/>
      <point x="430" y="382"/>
      <point x="439" y="391"/>
      <point x="439" y="398" type="curve" smooth="yes"/>
      <point x="439" y="401"/>
      <point x="434" y="406"/>
      <point x="433" y="406" type="curve" smooth="yes"/>
      <point x="419" y="406"/>
      <point x="381" y="397"/>
      <point x="365" y="397" type="curve" smooth="yes"/>
      <point x="356" y="397"/>
      <point x="314" y="402"/>
      <point x="312" y="402" type="curve" smooth="yes"/>
      <point x="309" y="402"/>
      <point x="299" y="401"/>
      <point x="299" y="392" type="curve" smooth="yes"/>
      <point x="299" y="389"/>
      <point x="304" y="383"/>
      <point x="308" y="382" type="curve"/>
      <point x="322" y="379"/>
      <point x="336" y="369"/>
      <point x="335" y="350" type="curve" smooth="yes"/>
      <point x="334" y="334"/>
      <point x="296" y="257"/>
      <point x="270" y="206" type="curve" smooth="yes"/>
      <point x="260" y="187" type="line"/>
      <point x="252" y="206" type="line" smooth="yes"/>
      <point x="229" y="261"/>
      <point x="214" y="286"/>
      <point x="186" y="340" type="curve" smooth="yes"/>
      <point x="179" y="354" type="line"/>
      <point x="189" y="362" type="line" smooth="yes"/>
      <point x="224" y="387"/>
      <point x="246" y="429"/>
      <point x="247" y="489" type="curve" smooth="yes"/>
      <point x="247" y="540"/>
      <point x="227" y="599"/>
      <point x="166" y="599" type="curve" smooth="yes"/>
      <point x="122" y="599"/>
      <point x="77" y="554"/>
      <point x="77" y="484" type="curve" smooth="yes"/>
      <point x="77" y="425"/>
      <point x="109" y="392"/>
      <point x="121" y="370" type="curve"/>
      <point x="134" y="350" type="line"/>
      <point x="122" y="341" type="line" smooth="yes"/>
      <point x="61" y="296"/>
      <point x="18" y="234"/>
      <point x="18" y="127" type="curve" smooth="yes"/>
      <point x="18" y="45"/>
      <point x="62" y="-14"/>
      <point x="125" y="-14" type="curve" smooth="yes"/>
      <point x="177" y="-14"/>
      <point x="203" y="41"/>
    </contour>
    <contour>
      <point x="77" y="152" type="curve" smooth="yes"/>
      <point x="77" y="213"/>
      <point x="84" y="278"/>
      <point x="134" y="315" type="curve" smooth="yes"/>
      <point x="145" y="323" type="line"/>
      <point x="152" y="310" type="line" smooth="yes"/>
      <point x="185" y="250"/>
      <point x="204" y="209"/>
      <point x="225" y="159" type="curve" smooth="yes"/>
      <point x="233" y="142" type="line"/>
      <point x="227" y="132" type="line" smooth="yes"/>
      <point x="191" y="75"/>
      <point x="168" y="36"/>
      <point x="138" y="36" type="curve" smooth="yes"/>
      <point x="101" y="36"/>
      <point x="77" y="87"/>
    </contour>
    <contour>
      <point x="159" y="389" type="line" smooth="yes"/>
      <point x="130" y="438"/>
      <point x="123" y="461"/>
      <point x="123" y="499" type="curve" smooth="yes"/>
      <point x="123" y="539"/>
      <point x="143" y="577"/>
      <point x="162" y="577" type="curve" smooth="yes"/>
      <point x="185" y="577"/>
      <point x="198" y="539"/>
      <point x="198" y="484" type="curve" smooth="yes"/>
      <point x="198" y="449"/>
      <point x="193" y="398"/>
      <point x="177" y="381" type="curve" smooth="yes"/>
      <point x="168" y="374" type="line"/>
    </contour>
  </outline>
</glyph>
<glyph name="parenleft" format="1">
  <advance width="187"/>
  <unicode hex="0028"/>
  <outline>
    <contour>
      <point x="155" y="-194" type="curve" smooth="yes"/>
      <point x="155" y="-192"/>
      <point x="152" y="-180"/>
      <point x="151" y="-177" type="curve" smooth="yes"/>
      <point x="108" y="-43"/>
      <point x="96" y="115"/>
      <point x="96" y="279" type="curve" smooth="yes"/>
      <point x="96" y="443"/>
      <point x="108" y="565"/>
      <point x="151" y="674" type="curve" smooth="yes"/>
      <point x="152" y="676"/>
      <point x="155" y="689"/>
      <point x="155" y="691" type="curve" smooth="yes"/>
      <point x="155" y="699"/>
      <point x="146" y="705"/>
      <point x="144" y="705" type="curve" smooth="yes"/>
      <point x="140" y="705"/>
      <point x="136" y="700"/>
      <point x="133" y="695" type="curve" smooth="yes"/>
      <point x="94" y="626"/>
      <point x="32" y="436"/>
      <point x="32" y="269" type="curve" smooth="yes"/>
      <point x="32" y="99"/>
      <point x="101" y="-134"/>
      <point x="135" y="-206" type="curve" smooth="yes"/>
      <point x="137" y="-211"/>
      <point x="139" y="-213"/>
      <point x="142" y="-213" type="curve" smooth="yes"/>
      <point x="146" y="-213"/>
      <point x="155" y="-206"/>
    </contour>
  </outline>
</glyph>
<glyph name="hyphen" format="1">
  <advance width="151"/>
  <unicode hex="002D"/>
  <outline>
    <contour>
      <point x="123" y="195" type="curve" smooth="yes"/>
      <point x="131" y="196"/>
      <point x="134" y="219"/>
      <point x="134" y="240" type="curve" smooth="yes"/>
      <point x="134" y="244"/>
      <point x="131" y="245"/>
      <point x="129" y="245" type="curve"/>
      <point x="94" y="241"/>
      <point x="60" y="236"/>
      <point x="25" y="232" type="curve"/>
      <point x="20" y="231"/>
      <point x="17" y="206"/>
      <point x="17" y="187" type="curve" smooth="yes"/>
      <point x="17" y="184"/>
      <point x="17" y="182"/>
      <point x="20" y="182" type="curve"/>
      <point x="55" y="186"/>
      <point x="88" y="191"/>
    </contour>
  </outline>
</glyph>
<glyph name="three" format="1">
  <advance width="282"/>
  <unicode hex="0033"/>
  <outline>
    <contour>
      <point x="250" y="196" type="curve" smooth="yes"/>
      <point x="250" y="283"/>
      <point x="207" y="354"/>
      <point x="158" y="354" type="curve" smooth="yes"/>
      <point x="155" y="354"/>
      <point x="155" y="358"/>
      <point x="158" y="360" type="curve"/>
      <point x="204" y="405"/>
      <point x="221" y="462"/>
      <point x="221" y="510" type="curve" smooth="yes"/>
      <point x="221" y="581"/>
      <point x="186" y="630"/>
      <point x="136" y="630" type="curve" smooth="yes"/>
      <point x="60" y="630"/>
      <point x="32" y="540"/>
      <point x="32" y="500" type="curve" smooth="yes"/>
      <point x="32" y="490"/>
      <point x="38" y="482"/>
      <point x="42" y="482" type="curve" smooth="yes"/>
      <point x="49" y="482"/>
      <point x="58" y="571"/>
      <point x="110" y="571" type="curve" smooth="yes"/>
      <point x="139" y="571"/>
      <point x="160" y="527"/>
      <point x="160" y="467" type="curve" smooth="yes"/>
      <point x="160" y="392"/>
      <point x="110" y="340"/>
      <point x="98" y="330" type="curve" smooth="yes"/>
      <point x="92" y="324"/>
      <point x="85" y="315"/>
      <point x="84" y="298" type="curve" smooth="yes"/>
      <point x="83" y="292"/>
      <point x="88" y="286"/>
      <point x="92" y="291" type="curve" smooth="yes"/>
      <point x="103" y="303"/>
      <point x="117" y="306"/>
      <point x="123" y="306" type="curve" smooth="yes"/>
      <point x="161" y="306"/>
      <point x="185" y="225"/>
      <point x="185" y="147" type="curve" smooth="yes"/>
      <point x="185" y="62"/>
      <point x="149" y="-4"/>
      <point x="108" y="-4" type="curve" smooth="yes"/>
      <point x="88" y="-4"/>
      <point x="81" y="14"/>
      <point x="70" y="30" type="curve" smooth="yes"/>
      <point x="62" y="40"/>
      <point x="53" y="50"/>
      <point x="44" y="50" type="curve" smooth="yes"/>
      <point x="35" y="51"/>
      <point x="15" y="26"/>
      <point x="15" y="11" type="curve" smooth="yes"/>
      <point x="15" y="-9"/>
      <point x="58" y="-38"/>
      <point x="86" y="-38" type="curve" smooth="yes"/>
      <point x="166" y="-38"/>
      <point x="250" y="48"/>
    </contour>
  </outline>
</glyph>
<glyph name="four" format="1">
  <advance width="282"/>
  <unicode hex="0034"/>
  <outline>
    <contour>
      <point x="193" y="2" type="curve" smooth="yes"/>
      <point x="229" y="2"/>
      <point x="244" y="-5"/>
      <point x="264" y="-5" type="curve" smooth="yes"/>
      <point x="272" y="-5"/>
      <point x="274" y="2"/>
      <point x="274" y="7" type="curve" smooth="yes"/>
      <point x="274" y="12"/>
      <point x="269" y="17"/>
      <point x="264" y="18" type="curve" smooth="yes"/>
      <point x="239" y="26"/>
      <point x="224" y="39"/>
      <point x="224" y="76" type="curve" smooth="yes"/>
      <point x="224" y="180" type="line" smooth="yes"/>
      <point x="224" y="182"/>
      <point x="225" y="184"/>
      <point x="228" y="186" type="curve"/>
      <point x="230" y="187"/>
      <point x="234" y="188"/>
      <point x="240" y="188" type="curve" smooth="yes"/>
      <point x="247" y="188"/>
      <point x="254" y="187"/>
      <point x="260" y="187" type="curve" smooth="yes"/>
      <point x="262" y="187"/>
      <point x="269" y="204"/>
      <point x="269" y="220" type="curve" smooth="yes"/>
      <point x="269" y="225"/>
      <point x="267" y="229"/>
      <point x="265" y="229" type="curve"/>
      <point x="258" y="229"/>
      <point x="252" y="228"/>
      <point x="246" y="228" type="curve" smooth="yes"/>
      <point x="240" y="228"/>
      <point x="234" y="228"/>
      <point x="228" y="228" type="curve"/>
      <point x="226" y="228"/>
      <point x="224" y="231"/>
      <point x="224" y="234" type="curve" smooth="yes"/>
      <point x="224" y="316" type="line" smooth="yes"/>
      <point x="224" y="358"/>
      <point x="224" y="380"/>
      <point x="221" y="380" type="curve" smooth="yes"/>
      <point x="220" y="380"/>
      <point x="170" y="378"/>
      <point x="164" y="367" type="curve"/>
      <point x="162" y="363"/>
      <point x="162" y="359"/>
      <point x="162" y="345" type="curve" smooth="yes"/>
      <point x="162" y="237" type="line" smooth="yes"/>
      <point x="162" y="233"/>
      <point x="157" y="229"/>
      <point x="155" y="229" type="curve" smooth="yes"/>
      <point x="77" y="229" type="line" smooth="yes"/>
      <point x="76" y="229"/>
      <point x="76" y="235"/>
      <point x="77" y="238" type="curve" smooth="yes"/>
      <point x="226" y="629" type="line"/>
      <point x="227" y="630"/>
      <point x="230" y="642"/>
      <point x="227" y="642" type="curve" smooth="yes"/>
      <point x="207" y="642" type="line" smooth="yes"/>
      <point x="202" y="642"/>
      <point x="198" y="627"/>
      <point x="193" y="615" type="curve" smooth="yes"/>
      <point x="50" y="235" type="line" smooth="yes"/>
      <point x="42" y="217"/>
      <point x="40" y="217"/>
      <point x="30" y="190" type="curve"/>
      <point x="30" y="189"/>
      <point x="30" y="188"/>
      <point x="30" y="187" type="curve" smooth="yes"/>
      <point x="30" y="183"/>
      <point x="32" y="177"/>
      <point x="35" y="177" type="curve" smooth="yes"/>
      <point x="86" y="177"/>
      <point x="115" y="184"/>
      <point x="154" y="184" type="curve" smooth="yes"/>
      <point x="154" y="184"/>
      <point x="162" y="181"/>
      <point x="162" y="175" type="curve" smooth="yes"/>
      <point x="162" y="73" type="line" smooth="yes"/>
      <point x="162" y="44"/>
      <point x="148" y="24"/>
      <point x="115" y="19" type="curve" smooth="yes"/>
      <point x="110" y="18"/>
      <point x="106" y="15"/>
      <point x="106" y="8" type="curve" smooth="yes"/>
      <point x="106" y="1"/>
      <point x="111" y="-3"/>
      <point x="114" y="-3" type="curve" smooth="yes"/>
      <point x="139" y="-3"/>
      <point x="169" y="2"/>
    </contour>
  </outline>
</glyph>
<glyph name="five" format="1">
  <advance width="282"/>
  <unicode hex="0035"/>
  <outline>
    <contour>
      <point x="184" y="14" type="curve" smooth="yes"/>
      <point x="221" y="56"/>
      <point x="242" y="122"/>
      <point x="242" y="194" type="curve" smooth="yes"/>
      <point x="242" y="271"/>
      <point x="219" y="317"/>
      <point x="178" y="354" type="curve" smooth="yes"/>
      <point x="152" y="378"/>
      <point x="125" y="395"/>
      <point x="85" y="416" type="curve" smooth="yes"/>
      <point x="78" y="420"/>
      <point x="77" y="426"/>
      <point x="77" y="435" type="curve"/>
      <point x="77" y="451"/>
      <point x="101" y="519"/>
      <point x="108" y="521" type="curve" smooth="yes"/>
      <point x="125" y="526"/>
      <point x="171" y="532"/>
      <point x="199" y="539" type="curve" smooth="yes"/>
      <point x="208" y="541"/>
      <point x="214" y="551"/>
      <point x="219" y="571" type="curve" smooth="yes"/>
      <point x="222" y="581"/>
      <point x="226" y="593"/>
      <point x="229" y="604" type="curve" smooth="yes"/>
      <point x="231" y="613"/>
      <point x="228" y="621"/>
      <point x="217" y="620" type="curve" smooth="yes"/>
      <point x="177" y="616"/>
      <point x="140" y="607"/>
      <point x="107" y="592" type="curve" smooth="yes"/>
      <point x="95" y="587"/>
      <point x="87" y="576"/>
      <point x="82" y="556" type="curve" smooth="yes"/>
      <point x="70" y="512"/>
      <point x="54" y="442"/>
      <point x="54" y="406" type="curve" smooth="yes"/>
      <point x="54" y="388"/>
      <point x="56" y="376"/>
      <point x="65" y="363" type="curve"/>
      <point x="144" y="315"/>
      <point x="182" y="279"/>
      <point x="182" y="184" type="curve" smooth="yes"/>
      <point x="182" y="82"/>
      <point x="151" y="-1"/>
      <point x="68" y="-14" type="curve" smooth="yes"/>
      <point x="60" y="-15"/>
      <point x="50" y="-19"/>
      <point x="50" y="-27" type="curve" smooth="yes"/>
      <point x="50" y="-35"/>
      <point x="62" y="-38"/>
      <point x="70" y="-38" type="curve" smooth="yes"/>
      <point x="115" y="-38"/>
      <point x="154" y="-18"/>
    </contour>
  </outline>
</glyph>
<glyph name="six" format="1">
  <advance width="282"/>
  <unicode hex="0036"/>
  <outline>
    <contour>
      <point x="256" y="185" type="curve" smooth="yes"/>
      <point x="256" y="262"/>
      <point x="223" y="313"/>
      <point x="186" y="313" type="curve" smooth="yes"/>
      <point x="166" y="313"/>
      <point x="144" y="298"/>
      <point x="130" y="281" type="curve" smooth="yes"/>
      <point x="124" y="274"/>
      <point x="118" y="266"/>
      <point x="114" y="258" type="curve" smooth="yes"/>
      <point x="110" y="249"/>
      <point x="113" y="241"/>
      <point x="121" y="248" type="curve" smooth="yes"/>
      <point x="134" y="260"/>
      <point x="145" y="266"/>
      <point x="157" y="266" type="curve" smooth="yes"/>
      <point x="184" y="266"/>
      <point x="195" y="207"/>
      <point x="195" y="142" type="curve" smooth="yes"/>
      <point x="195" y="55"/>
      <point x="175" y="15"/>
      <point x="151" y="16" type="curve" smooth="yes"/>
      <point x="124" y="17"/>
      <point x="94" y="79"/>
      <point x="93" y="191" type="curve" smooth="yes"/>
      <point x="92" y="301"/>
      <point x="110" y="414"/>
      <point x="145" y="480" type="curve" smooth="yes"/>
      <point x="165" y="541"/>
      <point x="189" y="585"/>
      <point x="224" y="617" type="curve" smooth="yes"/>
      <point x="228" y="620"/>
      <point x="236" y="626"/>
      <point x="237" y="635" type="curve" smooth="yes"/>
      <point x="237" y="639"/>
      <point x="234" y="645"/>
      <point x="220" y="637" type="curve" smooth="yes"/>
      <point x="176" y="613"/>
      <point x="137" y="551"/>
      <point x="107" y="500" type="curve" smooth="yes"/>
      <point x="61" y="439"/>
      <point x="26" y="332"/>
      <point x="26" y="193" type="curve" smooth="yes"/>
      <point x="26" y="53"/>
      <point x="88" y="-16"/>
      <point x="152" y="-16" type="curve" smooth="yes"/>
      <point x="206" y="-16"/>
      <point x="256" y="62"/>
    </contour>
  </outline>
</glyph>
<glyph name="eight" format="1">
  <advance width="282"/>
  <unicode hex="0038"/>
  <outline>
    <contour>
      <point x="261" y="164" type="curve" smooth="yes"/>
      <point x="261" y="241"/>
      <point x="231" y="286"/>
      <point x="185" y="341" type="curve" smooth="yes"/>
      <point x="179" y="348"/>
      <point x="177" y="350"/>
      <point x="188" y="362" type="curve" smooth="yes"/>
      <point x="203" y="377"/>
      <point x="208" y="383"/>
      <point x="218" y="398" type="curve" smooth="yes"/>
      <point x="233" y="419"/>
      <point x="249" y="447"/>
      <point x="249" y="496" type="curve" smooth="yes"/>
      <point x="249" y="577"/>
      <point x="199" y="630"/>
      <point x="147" y="630" type="curve" smooth="yes"/>
      <point x="90" y="630"/>
      <point x="32" y="569"/>
      <point x="32" y="484" type="curve" smooth="yes"/>
      <point x="32" y="404"/>
      <point x="58" y="358"/>
      <point x="101" y="310" type="curve" smooth="yes"/>
      <point x="107" y="303"/>
      <point x="110" y="302"/>
      <point x="104" y="297" type="curve" smooth="yes"/>
      <point x="70" y="271"/>
      <point x="21" y="229"/>
      <point x="21" y="141" type="curve" smooth="yes"/>
      <point x="21" y="49"/>
      <point x="75" y="-14"/>
      <point x="135" y="-14" type="curve" smooth="yes"/>
      <point x="200" y="-14"/>
      <point x="261" y="58"/>
    </contour>
    <contour>
      <point x="83" y="155" type="curve" smooth="yes"/>
      <point x="83" y="220"/>
      <point x="90" y="240"/>
      <point x="113" y="276" type="curve" smooth="yes"/>
      <point x="116" y="280"/>
      <point x="118" y="282"/>
      <point x="119" y="282" type="curve" smooth="yes"/>
      <point x="123" y="282"/>
      <point x="125" y="278"/>
      <point x="130" y="272" type="curve"/>
      <point x="165" y="236"/>
      <point x="199" y="185"/>
      <point x="199" y="122" type="curve" smooth="yes"/>
      <point x="199" y="62"/>
      <point x="175" y="11"/>
      <point x="143" y="11" type="curve" smooth="yes"/>
      <point x="105" y="11"/>
      <point x="83" y="84"/>
    </contour>
    <contour>
      <point x="156" y="377" type="curve"/>
      <point x="112" y="426"/>
      <point x="91" y="433"/>
      <point x="91" y="511" type="curve" smooth="yes"/>
      <point x="91" y="565"/>
      <point x="120" y="609"/>
      <point x="144" y="609" type="curve" smooth="yes"/>
      <point x="174" y="609"/>
      <point x="191" y="561"/>
      <point x="191" y="505" type="curve" smooth="yes"/>
      <point x="191" y="443"/>
      <point x="189" y="414"/>
      <point x="164" y="376" type="curve"/>
      <point x="162" y="373"/>
      <point x="157" y="374"/>
    </contour>
  </outline>
</glyph>
<glyph name="equal" format="1">
  <advance width="318"/>
  <unicode hex="003D"/>
  <outline>
    <contour>
      <point x="260" y="316" type="line" smooth="yes"/>
      <point x="279" y="316"/>
      <point x="291" y="342"/>
      <point x="291" y="356" type="curve" smooth="yes"/>
      <point x="291" y="361"/>
      <point x="285" y="364"/>
      <point x="278" y="364" type="curve" smooth="yes"/>
      <point x="51" y="364" type="line" smooth="yes"/>
      <point x="33" y="364"/>
      <point x="27" y="333"/>
      <point x="27" y="326" type="curve" smooth="yes"/>
      <point x="27" y="321"/>
      <point x="34" y="316"/>
      <point x="41" y="316" type="curve" smooth="yes"/>
    </contour>
    <contour>
      <point x="260" y="144" type="line" smooth="yes"/>
      <point x="279" y="144"/>
      <point x="291" y="170"/>
      <point x="291" y="184" type="curve" smooth="yes"/>
      <point x="291" y="189"/>
      <point x="285" y="192"/>
      <point x="278" y="192" type="curve" smooth="yes"/>
      <point x="51" y="192" type="line" smooth="yes"/>
      <point x="33" y="192"/>
      <point x="27" y="162"/>
      <point x="27" y="154" type="curve" smooth="yes"/>
      <point x="27" y="149"/>
      <point x="34" y="144"/>
      <point x="41" y="144" type="curve" smooth="yes"/>
    </contour>
  </outline>
</glyph>
<glyph name="B" format="1">
  <advance width="326"/>
  <unicode hex="0042"/>
  <outline>
    <contour>
      <point x="98" y="2" type="curve" smooth="yes"/>
      <point x="124" y="2"/>
      <point x="150" y="-2"/>
      <point x="162" y="-2" type="curve" smooth="yes"/>
      <point x="200" y="-2"/>
      <point x="227" y="11"/>
      <point x="248" y="32" type="curve" smooth="yes"/>
      <point x="270" y="53"/>
      <point x="302" y="86"/>
      <point x="302" y="195" type="curve" smooth="yes"/>
      <point x="302" y="289"/>
      <point x="254" y="335"/>
      <point x="187" y="356" type="curve" smooth="yes"/>
      <point x="183" y="357"/>
      <point x="183" y="363"/>
      <point x="187" y="365" type="curve" smooth="yes"/>
      <point x="211" y="372"/>
      <point x="239" y="390"/>
      <point x="252" y="409" type="curve" smooth="yes"/>
      <point x="271" y="436"/>
      <point x="279" y="467"/>
      <point x="279" y="504" type="curve" smooth="yes"/>
      <point x="279" y="598"/>
      <point x="235" y="655"/>
      <point x="161" y="655" type="curve" smooth="yes"/>
      <point x="133" y="655"/>
      <point x="112" y="650"/>
      <point x="87" y="650" type="curve" smooth="yes"/>
      <point x="63" y="650"/>
      <point x="58" y="651"/>
      <point x="29" y="651" type="curve" smooth="yes"/>
      <point x="20" y="651"/>
      <point x="14" y="648"/>
      <point x="14" y="641" type="curve" smooth="yes"/>
      <point x="14" y="633"/>
      <point x="19" y="626"/>
      <point x="31" y="624" type="curve" smooth="yes"/>
      <point x="57" y="621"/>
      <point x="65" y="604"/>
      <point x="65" y="556" type="curve" smooth="yes"/>
      <point x="65" y="93" type="line" smooth="yes"/>
      <point x="65" y="45"/>
      <point x="57" y="31"/>
      <point x="27" y="23" type="curve" smooth="yes"/>
      <point x="16" y="19"/>
      <point x="11" y="15"/>
      <point x="11" y="7" type="curve" smooth="yes"/>
      <point x="11" y="0"/>
      <point x="17" y="-3"/>
      <point x="25" y="-3" type="curve" smooth="yes"/>
      <point x="55" y="-3"/>
      <point x="66" y="2"/>
    </contour>
    <contour>
      <point x="125" y="105" type="curve" smooth="yes"/>
      <point x="125" y="308" type="line" smooth="yes"/>
      <point x="125" y="322"/>
      <point x="131" y="345"/>
      <point x="149" y="345" type="curve" smooth="yes"/>
      <point x="176" y="345"/>
      <point x="193" y="332"/>
      <point x="203" y="319" type="curve" smooth="yes"/>
      <point x="216" y="301"/>
      <point x="231" y="263"/>
      <point x="231" y="187" type="curve" smooth="yes"/>
      <point x="231" y="77"/>
      <point x="198" y="32"/>
      <point x="159" y="32" type="curve" smooth="yes"/>
      <point x="138" y="32"/>
      <point x="125" y="48"/>
    </contour>
    <contour>
      <point x="125" y="406" type="curve" smooth="yes"/>
      <point x="125" y="583" type="line" smooth="yes"/>
      <point x="125" y="614"/>
      <point x="130" y="629"/>
      <point x="153" y="629" type="curve" smooth="yes"/>
      <point x="197" y="629"/>
      <point x="214" y="586"/>
      <point x="214" y="495" type="curve" smooth="yes"/>
      <point x="214" y="437"/>
      <point x="204" y="407"/>
      <point x="196" y="396" type="curve" smooth="yes"/>
      <point x="182" y="374"/>
      <point x="164" y="369"/>
      <point x="144" y="369" type="curve" smooth="yes"/>
      <point x="138" y="369"/>
      <point x="125" y="371"/>
    </contour>
  </outline>
</glyph>
<glyph name="F" format="1">
  <advance width="292"/>
  <unicode hex="0046"/>
  <outline>
    <contour>
      <point x="107" y="2" type="curve" smooth="yes"/>
      <point x="129" y="1"/>
      <point x="133" y="-5"/>
      <point x="167" y="-5" type="curve" smooth="yes"/>
      <point x="178" y="-5"/>
      <point x="185" y="-2"/>
      <point x="185" y="5" type="curve" smooth="yes"/>
      <point x="185" y="13"/>
      <point x="180" y="17"/>
      <point x="167" y="21" type="curve" smooth="yes"/>
      <point x="140" y="29"/>
      <point x="133" y="51"/>
      <point x="132" y="91" type="curve" smooth="yes"/>
      <point x="130" y="167"/>
      <point x="130" y="233"/>
      <point x="130" y="294" type="curve" smooth="yes"/>
      <point x="130" y="311"/>
      <point x="136" y="318"/>
      <point x="143" y="319" type="curve" smooth="yes"/>
      <point x="154" y="321"/>
      <point x="162" y="321"/>
      <point x="174" y="321" type="curve" smooth="yes"/>
      <point x="183" y="321"/>
      <point x="195" y="320"/>
      <point x="204" y="320" type="curve" smooth="yes"/>
      <point x="213" y="320"/>
      <point x="222" y="311"/>
      <point x="227" y="279" type="curve" smooth="yes"/>
      <point x="230" y="267"/>
      <point x="234" y="255"/>
      <point x="243" y="255" type="curve" smooth="yes"/>
      <point x="248" y="255"/>
      <point x="252" y="263"/>
      <point x="252" y="272" type="curve"/>
      <point x="251" y="301"/>
      <point x="250" y="320"/>
      <point x="250" y="340" type="curve" smooth="yes"/>
      <point x="250" y="356"/>
      <point x="251" y="372"/>
      <point x="252" y="395" type="curve" smooth="yes"/>
      <point x="252" y="406"/>
      <point x="248" y="411"/>
      <point x="242" y="411" type="curve" smooth="yes"/>
      <point x="237" y="411"/>
      <point x="230" y="404"/>
      <point x="228" y="393" type="curve" smooth="yes"/>
      <point x="222" y="368"/>
      <point x="213" y="351"/>
      <point x="197" y="351" type="curve" smooth="yes"/>
      <point x="181" y="351"/>
      <point x="158" y="348"/>
      <point x="135" y="348" type="curve" smooth="yes"/>
      <point x="130" y="348"/>
      <point x="130" y="359"/>
      <point x="130" y="370" type="curve"/>
      <point x="129" y="394"/>
      <point x="129" y="433"/>
      <point x="129" y="467" type="curve" smooth="yes"/>
      <point x="129" y="502"/>
      <point x="129" y="547"/>
      <point x="130" y="572" type="curve" smooth="yes"/>
      <point x="130" y="598"/>
      <point x="132" y="622"/>
      <point x="149" y="622" type="curve" smooth="yes"/>
      <point x="211" y="622" type="line" smooth="yes"/>
      <point x="227" y="622"/>
      <point x="240" y="615"/>
      <point x="250" y="593" type="curve" smooth="yes"/>
      <point x="255" y="583"/>
      <point x="259" y="565"/>
      <point x="263" y="542" type="curve" smooth="yes"/>
      <point x="264" y="534"/>
      <point x="270" y="529"/>
      <point x="274" y="529" type="curve" smooth="yes"/>
      <point x="278" y="529"/>
      <point x="284" y="535"/>
      <point x="284" y="550" type="curve" smooth="yes"/>
      <point x="284" y="564"/>
      <point x="282" y="628"/>
      <point x="282" y="651" type="curve" smooth="yes"/>
      <point x="282" y="658"/>
      <point x="276" y="660"/>
      <point x="273" y="660" type="curve" smooth="yes"/>
      <point x="261" y="660"/>
      <point x="239" y="650"/>
      <point x="218" y="650" type="curve"/>
      <point x="192" y="650"/>
      <point x="164" y="650"/>
      <point x="139" y="650" type="curve" smooth="yes"/>
      <point x="95" y="650"/>
      <point x="77" y="653"/>
      <point x="32" y="653" type="curve" smooth="yes"/>
      <point x="24" y="653"/>
      <point x="17" y="650"/>
      <point x="17" y="643" type="curve" smooth="yes"/>
      <point x="17" y="635"/>
      <point x="23" y="629"/>
      <point x="35" y="626" type="curve" smooth="yes"/>
      <point x="62" y="618"/>
      <point x="68" y="591"/>
      <point x="68" y="536" type="curve" smooth="yes"/>
      <point x="68" y="90" type="line" smooth="yes"/>
      <point x="68" y="45"/>
      <point x="59" y="29"/>
      <point x="32" y="21" type="curve" smooth="yes"/>
      <point x="19" y="17"/>
      <point x="14" y="13"/>
      <point x="14" y="5" type="curve" smooth="yes"/>
      <point x="14" y="-2"/>
      <point x="20" y="-5"/>
      <point x="27" y="-5" type="curve" smooth="yes"/>
      <point x="61" y="-5"/>
      <point x="76" y="1"/>
    </contour>
  </outline>
</glyph>
<glyph name="J" format="1">
  <advance width="218"/>
  <unicode hex="004A"/>
  <outline>
    <contour>
      <point x="106" y="-142" type="curve" smooth="yes"/>
      <point x="123" y="-104"/>
      <point x="143" y="-37"/>
      <point x="143" y="40" type="curve" smooth="yes"/>
      <point x="143" y="563" type="line" smooth="yes"/>
      <point x="143" y="604"/>
      <point x="153" y="618"/>
      <point x="180" y="626" type="curve" smooth="yes"/>
      <point x="193" y="629"/>
      <point x="198" y="635"/>
      <point x="198" y="643" type="curve" smooth="yes"/>
      <point x="198" y="650"/>
      <point x="191" y="653"/>
      <point x="183" y="653" type="curve" smooth="yes"/>
      <point x="148" y="653"/>
      <point x="143" y="650"/>
      <point x="118" y="650" type="curve" smooth="yes"/>
      <point x="88" y="650"/>
      <point x="77" y="653"/>
      <point x="43" y="653" type="curve" smooth="yes"/>
      <point x="35" y="653"/>
      <point x="27" y="650"/>
      <point x="27" y="643" type="curve" smooth="yes"/>
      <point x="27" y="635"/>
      <point x="34" y="629"/>
      <point x="46" y="626" type="curve" smooth="yes"/>
      <point x="72" y="618"/>
      <point x="81" y="604"/>
      <point x="81" y="563" type="curve" smooth="yes"/>
      <point x="81" y="-1" type="line" smooth="yes"/>
      <point x="81" y="-101"/>
      <point x="72" y="-164"/>
      <point x="47" y="-164" type="curve" smooth="yes"/>
      <point x="38" y="-164"/>
      <point x="31" y="-155"/>
      <point x="22" y="-131" type="curve" smooth="yes"/>
      <point x="14" y="-112"/>
      <point x="7" y="-104"/>
      <point x="-10" y="-104" type="curve" smooth="yes"/>
      <point x="-25" y="-104"/>
      <point x="-41" y="-127"/>
      <point x="-41" y="-151" type="curve" smooth="yes"/>
      <point x="-41" y="-182"/>
      <point x="-14" y="-200"/>
      <point x="39" y="-200" type="curve" smooth="yes"/>
      <point x="69" y="-200"/>
      <point x="90" y="-177"/>
    </contour>
  </outline>
</glyph>
<glyph name="R" format="1">
  <advance width="386"/>
  <unicode hex="0052"/>
  <outline>
    <contour>
      <point x="395" y="9" type="curve" smooth="yes"/>
      <point x="395" y="16"/>
      <point x="392" y="19"/>
      <point x="387" y="19" type="curve" smooth="yes"/>
      <point x="364" y="19"/>
      <point x="349" y="22"/>
      <point x="330" y="52" type="curve" smooth="yes"/>
      <point x="274" y="138"/>
      <point x="244" y="221"/>
      <point x="206" y="311" type="curve" smooth="yes"/>
      <point x="203" y="317"/>
      <point x="203" y="322"/>
      <point x="206" y="324" type="curve"/>
      <point x="237" y="352"/>
      <point x="268" y="401"/>
      <point x="268" y="491" type="curve" smooth="yes"/>
      <point x="268" y="606"/>
      <point x="220" y="655"/>
      <point x="168" y="655" type="curve" smooth="yes"/>
      <point x="145" y="655"/>
      <point x="110" y="650"/>
      <point x="92" y="650" type="curve" smooth="yes"/>
      <point x="74" y="650"/>
      <point x="58" y="651"/>
      <point x="29" y="651" type="curve" smooth="yes"/>
      <point x="22" y="651"/>
      <point x="16" y="648"/>
      <point x="16" y="641" type="curve" smooth="yes"/>
      <point x="16" y="633"/>
      <point x="21" y="625"/>
      <point x="31" y="623" type="curve" smooth="yes"/>
      <point x="55" y="619"/>
      <point x="57" y="606"/>
      <point x="57" y="532" type="curve" smooth="yes"/>
      <point x="57" y="91" type="line" smooth="yes"/>
      <point x="57" y="44"/>
      <point x="49" y="29"/>
      <point x="25" y="21" type="curve" smooth="yes"/>
      <point x="16" y="17"/>
      <point x="12" y="13"/>
      <point x="12" y="5" type="curve" smooth="yes"/>
      <point x="12" y="-2"/>
      <point x="16" y="-5"/>
      <point x="24" y="-5" type="curve" smooth="yes"/>
      <point x="52" y="-5"/>
      <point x="78" y="2"/>
      <point x="103" y="2" type="curve" smooth="yes"/>
      <point x="131" y="2"/>
      <point x="134" y="-5"/>
      <point x="159" y="-5" type="curve" smooth="yes"/>
      <point x="165" y="-5"/>
      <point x="171" y="-2"/>
      <point x="171" y="5" type="curve" smooth="yes"/>
      <point x="171" y="13"/>
      <point x="166" y="17"/>
      <point x="154" y="21" type="curve" smooth="yes"/>
      <point x="127" y="28"/>
      <point x="119" y="57"/>
      <point x="119" y="99" type="curve" smooth="yes"/>
      <point x="119" y="284" type="line" smooth="yes"/>
      <point x="119" y="296"/>
      <point x="121" y="305"/>
      <point x="125" y="304" type="curve" smooth="yes"/>
      <point x="133" y="302"/>
      <point x="146" y="297"/>
      <point x="158" y="283" type="curve" smooth="yes"/>
      <point x="165" y="274"/>
      <point x="170" y="263"/>
      <point x="175" y="245" type="curve" smooth="yes"/>
      <point x="209" y="133"/>
      <point x="223" y="100"/>
      <point x="244" y="43" type="curve" smooth="yes"/>
      <point x="262" y="-12"/>
      <point x="299" y="-21"/>
      <point x="337" y="-21" type="curve" smooth="yes"/>
      <point x="349" y="-21"/>
      <point x="395" y="-16"/>
    </contour>
    <contour>
      <point x="119" y="360" type="curve" smooth="yes"/>
      <point x="119" y="442"/>
      <point x="119" y="498"/>
      <point x="120" y="533" type="curve" smooth="yes"/>
      <point x="121" y="603"/>
      <point x="124" y="627"/>
      <point x="141" y="627" type="curve" smooth="yes"/>
      <point x="191" y="627"/>
      <point x="199" y="557"/>
      <point x="199" y="475" type="curve" smooth="yes"/>
      <point x="199" y="394"/>
      <point x="183" y="325"/>
      <point x="139" y="325" type="curve" smooth="yes"/>
      <point x="127" y="325"/>
      <point x="119" y="327"/>
    </contour>
  </outline>
</glyph>
<glyph name="X" format="1">
  <advance width="396"/>
  <unicode hex="0058"/>
  <outline>
    <contour>
      <point x="89" y="1" type="curve" smooth="yes"/>
      <point x="107" y="1"/>
      <point x="137" y="-1"/>
      <point x="147" y="-1" type="curve" smooth="yes"/>
      <point x="155" y="-1"/>
      <point x="162" y="2"/>
      <point x="162" y="9" type="curve" smooth="yes"/>
      <point x="162" y="17"/>
      <point x="157" y="21"/>
      <point x="144" y="26" type="curve"/>
      <point x="125" y="32"/>
      <point x="114" y="48"/>
      <point x="114" y="68" type="curve" smooth="yes"/>
      <point x="114" y="75"/>
      <point x="116" y="83"/>
      <point x="119" y="91" type="curve" smooth="yes"/>
      <point x="186" y="260" type="line" smooth="yes"/>
      <point x="189" y="269"/>
      <point x="193" y="269"/>
      <point x="198" y="255" type="curve" smooth="yes"/>
      <point x="259" y="108" type="line"/>
      <point x="264" y="96"/>
      <point x="265" y="85"/>
      <point x="265" y="75" type="curve" smooth="yes"/>
      <point x="265" y="50"/>
      <point x="254" y="34"/>
      <point x="239" y="28" type="curve" smooth="yes"/>
      <point x="232" y="23"/>
      <point x="221" y="18"/>
      <point x="221" y="10" type="curve" smooth="yes"/>
      <point x="221" y="3"/>
      <point x="227" y="0"/>
      <point x="237" y="0" type="curve" smooth="yes"/>
      <point x="250" y="0"/>
      <point x="272" y="1"/>
      <point x="295" y="1" type="curve" smooth="yes"/>
      <point x="322" y="1"/>
      <point x="359" y="-5"/>
      <point x="375" y="-5" type="curve" smooth="yes"/>
      <point x="385" y="-5"/>
      <point x="391" y="-2"/>
      <point x="391" y="5" type="curve" smooth="yes"/>
      <point x="391" y="13"/>
      <point x="386" y="17"/>
      <point x="373" y="23" type="curve" smooth="yes"/>
      <point x="356" y="31"/>
      <point x="334" y="64"/>
      <point x="318" y="107" type="curve" smooth="yes"/>
      <point x="237" y="321" type="line"/>
      <point x="234" y="336"/>
      <point x="237" y="340"/>
      <point x="245" y="361" type="curve" smooth="yes"/>
      <point x="302" y="519" type="line" smooth="yes"/>
      <point x="322" y="575"/>
      <point x="349" y="619"/>
      <point x="372" y="628" type="curve" smooth="yes"/>
      <point x="384" y="633"/>
      <point x="390" y="638"/>
      <point x="390" y="646" type="curve" smooth="yes"/>
      <point x="390" y="653"/>
      <point x="383" y="655"/>
      <point x="372" y="655" type="curve" smooth="yes"/>
      <point x="356" y="655"/>
      <point x="326" y="650"/>
      <point x="303" y="650" type="curve" smooth="yes"/>
      <point x="285" y="650"/>
      <point x="269" y="651"/>
      <point x="255" y="651" type="curve" smooth="yes"/>
      <point x="243" y="651"/>
      <point x="237" y="648"/>
      <point x="237" y="641" type="curve" smooth="yes"/>
      <point x="237" y="633"/>
      <point x="247" y="626"/>
      <point x="255" y="624" type="curve" smooth="yes"/>
      <point x="277" y="619"/>
      <point x="285" y="607"/>
      <point x="285" y="592" type="curve" smooth="yes"/>
      <point x="285" y="579"/>
      <point x="277" y="562"/>
      <point x="271" y="541" type="curve" smooth="yes"/>
      <point x="223" y="395" type="line" smooth="yes"/>
      <point x="219" y="380"/>
      <point x="216" y="377"/>
      <point x="207" y="398" type="curve" smooth="yes"/>
      <point x="146" y="533" type="line" smooth="yes"/>
      <point x="133" y="565"/>
      <point x="128" y="583"/>
      <point x="128" y="595" type="curve" smooth="yes"/>
      <point x="128" y="611"/>
      <point x="140" y="617"/>
      <point x="158" y="625" type="curve" smooth="yes"/>
      <point x="171" y="631"/>
      <point x="176" y="635"/>
      <point x="176" y="643" type="curve" smooth="yes"/>
      <point x="176" y="650"/>
      <point x="170" y="652"/>
      <point x="160" y="652" type="curve" smooth="yes"/>
      <point x="150" y="652"/>
      <point x="128" y="651"/>
      <point x="105" y="651" type="curve" smooth="yes"/>
      <point x="77" y="651"/>
      <point x="43" y="655"/>
      <point x="24" y="655" type="curve" smooth="yes"/>
      <point x="15" y="655"/>
      <point x="9" y="652"/>
      <point x="9" y="645" type="curve" smooth="yes"/>
      <point x="9" y="638"/>
      <point x="15" y="632"/>
      <point x="26" y="626" type="curve" smooth="yes"/>
      <point x="43" y="617"/>
      <point x="57" y="603"/>
      <point x="86" y="533" type="curve" smooth="yes"/>
      <point x="165" y="349" type="line" smooth="yes"/>
      <point x="177" y="322"/>
      <point x="170" y="307"/>
      <point x="162" y="287" type="curve"/>
      <point x="93" y="121" type="line" smooth="yes"/>
      <point x="71" y="67"/>
      <point x="33" y="34"/>
      <point x="16" y="25" type="curve" smooth="yes"/>
      <point x="2" y="18"/>
      <point x="-3" y="13"/>
      <point x="-3" y="5" type="curve" smooth="yes"/>
      <point x="-3" y="-2"/>
      <point x="3" y="-5"/>
      <point x="12" y="-5" type="curve" smooth="yes"/>
      <point x="30" y="-5"/>
      <point x="64" y="1"/>
    </contour>
  </outline>
</glyph>
<glyph name="Y" format="1">
  <advance width="328"/>
  <unicode hex="0059"/>
  <outline>
    <contour>
      <point x="168" y="0" type="curve" smooth="yes"/>
      <point x="193" y="0"/>
      <point x="203" y="-5"/>
      <point x="232" y="-5" type="curve" smooth="yes"/>
      <point x="242" y="-5"/>
      <point x="249" y="-2"/>
      <point x="249" y="6" type="curve" smooth="yes"/>
      <point x="249" y="15"/>
      <point x="244" y="20"/>
      <point x="233" y="24" type="curve" smooth="yes"/>
      <point x="208" y="33"/>
      <point x="194" y="63"/>
      <point x="194" y="108" type="curve" smooth="yes"/>
      <point x="194" y="253" type="line" smooth="yes"/>
      <point x="194" y="292"/>
      <point x="193" y="300"/>
      <point x="205" y="343" type="curve" smooth="yes"/>
      <point x="230" y="418"/>
      <point x="240" y="443"/>
      <point x="270" y="526" type="curve" smooth="yes"/>
      <point x="289" y="581"/>
      <point x="298" y="608"/>
      <point x="317" y="617" type="curve" smooth="yes"/>
      <point x="332" y="625"/>
      <point x="346" y="633"/>
      <point x="346" y="642" type="curve" smooth="yes"/>
      <point x="346" y="650"/>
      <point x="338" y="653"/>
      <point x="328" y="653" type="curve" smooth="yes"/>
      <point x="314" y="653"/>
      <point x="289" y="650"/>
      <point x="264" y="650" type="curve" smooth="yes"/>
      <point x="247" y="650"/>
      <point x="235" y="651"/>
      <point x="216" y="651" type="curve" smooth="yes"/>
      <point x="206" y="651"/>
      <point x="199" y="648"/>
      <point x="199" y="640" type="curve" smooth="yes"/>
      <point x="199" y="631"/>
      <point x="209" y="622"/>
      <point x="216" y="620" type="curve" smooth="yes"/>
      <point x="227" y="617"/>
      <point x="239" y="610"/>
      <point x="239" y="585" type="curve" smooth="yes"/>
      <point x="239" y="573"/>
      <point x="236" y="556"/>
      <point x="229" y="534" type="curve" smooth="yes"/>
      <point x="214" y="491"/>
      <point x="199" y="439"/>
      <point x="188" y="410" type="curve" smooth="yes"/>
      <point x="179" y="382"/>
      <point x="177" y="372"/>
      <point x="173" y="372" type="curve" smooth="yes"/>
      <point x="170" y="372"/>
      <point x="165" y="385"/>
      <point x="158" y="410" type="curve" smooth="yes"/>
      <point x="119" y="560" type="line" smooth="yes"/>
      <point x="115" y="576"/>
      <point x="113" y="588"/>
      <point x="113" y="596" type="curve" smooth="yes"/>
      <point x="113" y="611"/>
      <point x="119" y="616"/>
      <point x="130" y="621" type="curve" smooth="yes"/>
      <point x="142" y="626"/>
      <point x="148" y="632"/>
      <point x="148" y="641" type="curve" smooth="yes"/>
      <point x="148" y="649"/>
      <point x="141" y="652"/>
      <point x="130" y="652" type="curve" smooth="yes"/>
      <point x="119" y="652"/>
      <point x="103" y="650"/>
      <point x="84" y="650" type="curve" smooth="yes"/>
      <point x="58" y="650"/>
      <point x="34" y="653"/>
      <point x="17" y="653" type="curve" smooth="yes"/>
      <point x="8" y="653"/>
      <point x="0" y="650"/>
      <point x="0" y="642" type="curve" smooth="yes"/>
      <point x="0" y="633"/>
      <point x="6" y="627"/>
      <point x="18" y="620" type="curve" smooth="yes"/>
      <point x="37" y="610"/>
      <point x="59" y="546"/>
      <point x="66" y="522" type="curve" smooth="yes"/>
      <point x="121" y="338" type="line"/>
      <point x="128" y="317"/>
      <point x="132" y="293"/>
      <point x="132" y="268" type="curve" smooth="yes"/>
      <point x="132" y="108" type="line" smooth="yes"/>
      <point x="132" y="60"/>
      <point x="119" y="33"/>
      <point x="97" y="24" type="curve" smooth="yes"/>
      <point x="87" y="20"/>
      <point x="82" y="15"/>
      <point x="82" y="6" type="curve" smooth="yes"/>
      <point x="82" y="-2"/>
      <point x="90" y="-5"/>
      <point x="100" y="-5" type="curve" smooth="yes"/>
      <point x="129" y="-5"/>
      <point x="142" y="0"/>
    </contour>
  </outline>
</glyph>
<glyph name="asciicircum" format="1">
  <advance width="314"/>
  <unicode hex="005E"/>
  <outline>
    <contour>
      <point x="58" y="300" type="curve" smooth="yes"/>
      <point x="154" y="535" type="line"/>
      <point x="156" y="540"/>
      <point x="156" y="540"/>
      <point x="158" y="535" type="curve"/>
      <point x="259" y="300" type="line" smooth="yes"/>
      <point x="263" y="290"/>
      <point x="273" y="284"/>
      <point x="282" y="284" type="curve" smooth="yes"/>
      <point x="287" y="284"/>
      <point x="289" y="295"/>
      <point x="286" y="302" type="curve"/>
      <point x="162" y="621" type="line"/>
      <point x="151" y="621" type="line"/>
      <point x="28" y="302" type="line"/>
      <point x="27" y="299"/>
      <point x="27" y="296"/>
      <point x="27" y="293" type="curve" smooth="yes"/>
      <point x="27" y="288"/>
      <point x="29" y="284"/>
      <point x="32" y="284" type="curve" smooth="yes"/>
      <point x="38" y="284"/>
      <point x="55" y="289"/>
    </contour>
  </outline>
</glyph>
<glyph name="grave" format="1">
  <advance width="127"/>
  <unicode hex="0060"/>
  <outline>
    <contour>
      <point x="113" y="442" type="curve" smooth="yes"/>
      <point x="114" y="446"/>
      <point x="114" y="452"/>
      <point x="113" y="461" type="curve" smooth="yes"/>
      <point x="108" y="501"/>
      <point x="88" y="585"/>
      <point x="72" y="624" type="curve" smooth="yes"/>
      <point x="68" y="635"/>
      <point x="60" y="654"/>
      <point x="52" y="654" type="curve" smooth="yes"/>
      <point x="32" y="654"/>
      <point x="17" y="655"/>
      <point x="13" y="645" type="curve" smooth="yes"/>
      <point x="11" y="637"/>
      <point x="15" y="631"/>
      <point x="18" y="621" type="curve" smooth="yes"/>
      <point x="31" y="579"/>
      <point x="65" y="497"/>
      <point x="86" y="460" type="curve" smooth="yes"/>
      <point x="92" y="445"/>
      <point x="99" y="436"/>
      <point x="104" y="434" type="curve" smooth="yes"/>
      <point x="109" y="433"/>
      <point x="112" y="434"/>
    </contour>
  </outline>
</glyph>
<glyph name="b" format="1">
  <advance width="286"/>
  <unicode hex="0062"/>
  <outline>
    <contour>
      <point x="267" y="217" type="curve" smooth="yes"/>
      <point x="267" y="328"/>
      <point x="225" y="414"/>
      <point x="171" y="414" type="curve" smooth="yes"/>
      <point x="148" y="414"/>
      <point x="116" y="389"/>
      <point x="94" y="355" type="curve"/>
      <point x="87" y="356"/>
      <point x="87" y="362"/>
      <point x="87" y="388" type="curve" smooth="yes"/>
      <point x="87" y="593" type="line" smooth="yes"/>
      <point x="87" y="649"/>
      <point x="90" y="691"/>
      <point x="90" y="696" type="curve" smooth="yes"/>
      <point x="90" y="702"/>
      <point x="88" y="705"/>
      <point x="86" y="705" type="curve" smooth="yes"/>
      <point x="82" y="705"/>
      <point x="76" y="702"/>
      <point x="70" y="696" type="curve" smooth="yes"/>
      <point x="60" y="686"/>
      <point x="31" y="671"/>
      <point x="12" y="665" type="curve" smooth="yes"/>
      <point x="8" y="664"/>
      <point x="5" y="662"/>
      <point x="5" y="656" type="curve" smooth="yes"/>
      <point x="5" y="650"/>
      <point x="8" y="646"/>
      <point x="12" y="644" type="curve" smooth="yes"/>
      <point x="26" y="632"/>
      <point x="33" y="615"/>
      <point x="33" y="577" type="curve" smooth="yes"/>
      <point x="33" y="81" type="line" smooth="yes"/>
      <point x="33" y="56"/>
      <point x="27" y="21"/>
      <point x="27" y="9" type="curve" smooth="yes"/>
      <point x="27" y="2"/>
      <point x="34" y="-3"/>
      <point x="37" y="-3" type="curve" smooth="yes"/>
      <point x="40" y="-3"/>
      <point x="43" y="-1"/>
      <point x="44" y="2" type="curve" smooth="yes"/>
      <point x="49" y="8"/>
      <point x="54" y="15"/>
      <point x="63" y="15" type="curve" smooth="yes"/>
      <point x="70" y="15"/>
      <point x="95" y="7"/>
      <point x="109" y="-1" type="curve" smooth="yes"/>
      <point x="122" y="-8"/>
      <point x="136" y="-14"/>
      <point x="150" y="-14" type="curve" smooth="yes"/>
      <point x="219" y="-14"/>
      <point x="267" y="80"/>
    </contour>
    <contour>
      <point x="87" y="125" type="curve" smooth="yes"/>
      <point x="87" y="316" type="line"/>
      <point x="101" y="343"/>
      <point x="119" y="361"/>
      <point x="142" y="361" type="curve" smooth="yes"/>
      <point x="186" y="361"/>
      <point x="206" y="263"/>
      <point x="206" y="187" type="curve" smooth="yes"/>
      <point x="206" y="88"/>
      <point x="184" y="12"/>
      <point x="150" y="12" type="curve" smooth="yes"/>
      <point x="116" y="12"/>
      <point x="87" y="55"/>
    </contour>
  </outline>
</glyph>
<glyph name="f" format="1">
  <advance width="176"/>
  <unicode hex="0066"/>
  <outline>
    <contour>
      <point x="81" y="4" type="curve" smooth="yes"/>
      <point x="99" y="4"/>
      <point x="125" y="0"/>
      <point x="143" y="0" type="curve" smooth="yes"/>
      <point x="150" y="0"/>
      <point x="153" y="2"/>
      <point x="153" y="9" type="curve" smooth="yes"/>
      <point x="153" y="18"/>
      <point x="148" y="21"/>
      <point x="141" y="23" type="curve" smooth="yes"/>
      <point x="112" y="30"/>
      <point x="104" y="38"/>
      <point x="104" y="64" type="curve" smooth="yes"/>
      <point x="104" y="348" type="line" smooth="yes"/>
      <point x="104" y="355"/>
      <point x="106" y="359"/>
      <point x="115" y="359" type="curve" smooth="yes"/>
      <point x="164" y="359" type="line" smooth="yes"/>
      <point x="165" y="359"/>
      <point x="168" y="362"/>
      <point x="169" y="366" type="curve" smooth="yes"/>
      <point x="170" y="373"/>
      <point x="171" y="383"/>
      <point x="171" y="390" type="curve" smooth="yes"/>
      <point x="171" y="395"/>
      <point x="169" y="400"/>
      <point x="164" y="400" type="curve" smooth="yes"/>
      <point x="110" y="400" type="line" smooth="yes"/>
      <point x="106" y="400"/>
      <point x="104" y="402"/>
      <point x="104" y="409" type="curve" smooth="yes"/>
      <point x="104" y="501" type="line" smooth="yes"/>
      <point x="104" y="613"/>
      <point x="128" y="671"/>
      <point x="155" y="671" type="curve" smooth="yes"/>
      <point x="171" y="671"/>
      <point x="178" y="658"/>
      <point x="186" y="640" type="curve" smooth="yes"/>
      <point x="191" y="624"/>
      <point x="196" y="608"/>
      <point x="213" y="608" type="curve" smooth="yes"/>
      <point x="225" y="608"/>
      <point x="237" y="618"/>
      <point x="237" y="647" type="curve" smooth="yes"/>
      <point x="237" y="682"/>
      <point x="215" y="707"/>
      <point x="178" y="707" type="curve" smooth="yes"/>
      <point x="125" y="707"/>
      <point x="50" y="646"/>
      <point x="50" y="430" type="curve" smooth="yes"/>
      <point x="50" y="405" type="line"/>
      <point x="39" y="397"/>
      <point x="32" y="391"/>
      <point x="18" y="380" type="curve" smooth="yes"/>
      <point x="17" y="379"/>
      <point x="14" y="378"/>
      <point x="14" y="375" type="curve" smooth="yes"/>
      <point x="14" y="369"/>
      <point x="20" y="360"/>
      <point x="22" y="359" type="curve"/>
      <point x="34" y="358"/>
      <point x="43" y="358"/>
      <point x="50" y="358" type="curve"/>
      <point x="50" y="64" type="line" smooth="yes"/>
      <point x="50" y="38"/>
      <point x="44" y="29"/>
      <point x="27" y="23" type="curve" smooth="yes"/>
      <point x="19" y="20"/>
      <point x="14" y="18"/>
      <point x="14" y="9" type="curve" smooth="yes"/>
      <point x="14" y="2"/>
      <point x="17" y="0"/>
      <point x="24" y="0" type="curve" smooth="yes"/>
      <point x="42" y="0"/>
      <point x="65" y="4"/>
    </contour>
  </outline>
</glyph>
<glyph name="g" format="1">
  <advance width="247"/>
  <unicode hex="0067"/>
  <outline>
    <contour>
      <point x="242" y="-77" type="curve" smooth="yes"/>
      <point x="241" y="-17"/>
      <point x="221" y="9"/>
      <point x="126" y="24" type="curve" smooth="yes"/>
      <point x="81" y="31"/>
      <point x="59" y="46"/>
      <point x="59" y="74" type="curve" smooth="yes"/>
      <point x="59" y="88"/>
      <point x="72" y="108"/>
      <point x="80" y="121" type="curve"/>
      <point x="70" y="133" type="line"/>
      <point x="61" y="119"/>
      <point x="55" y="102"/>
      <point x="37" y="85" type="curve" smooth="yes"/>
      <point x="23" y="72"/>
      <point x="16" y="62"/>
      <point x="16" y="50" type="curve" smooth="yes"/>
      <point x="16" y="-6"/>
      <point x="38" y="-23"/>
      <point x="113" y="-37" type="curve" smooth="yes"/>
      <point x="178" y="-49"/>
      <point x="194" y="-66"/>
      <point x="196" y="-110" type="curve" smooth="yes"/>
      <point x="197" y="-155"/>
      <point x="186" y="-197"/>
      <point x="174" y="-223" type="curve" smooth="yes"/>
      <point x="163" y="-244"/>
      <point x="146" y="-254"/>
      <point x="118" y="-254" type="curve" smooth="yes"/>
      <point x="91" y="-254"/>
      <point x="63" y="-212"/>
      <point x="63" y="-158" type="curve" smooth="yes"/>
      <point x="63" y="-103"/>
      <point x="74" y="-68"/>
      <point x="102" y="-26" type="curve"/>
      <point x="79" y="-24" type="line"/>
      <point x="58" y="-51"/>
      <point x="37" y="-78"/>
      <point x="25" y="-94" type="curve" smooth="yes"/>
      <point x="11" y="-112"/>
      <point x="6" y="-135"/>
      <point x="6" y="-170" type="curve" smooth="yes"/>
      <point x="6" y="-244"/>
      <point x="54" y="-290"/>
      <point x="114" y="-290" type="curve" smooth="yes"/>
      <point x="183" y="-290"/>
      <point x="244" y="-184"/>
    </contour>
    <contour>
      <point x="73" y="270" type="curve" smooth="yes"/>
      <point x="73" y="335"/>
      <point x="92" y="391"/>
      <point x="113" y="391" type="curve" smooth="yes"/>
      <point x="135" y="391"/>
      <point x="154" y="339"/>
      <point x="154" y="275" type="curve" smooth="yes"/>
      <point x="154" y="194"/>
      <point x="138" y="135"/>
      <point x="115" y="135" type="curve" smooth="yes"/>
      <point x="92" y="135"/>
      <point x="73" y="194"/>
    </contour>
    <contour>
      <point x="204" y="295" type="curve" smooth="yes"/>
      <point x="204" y="313"/>
      <point x="207" y="334"/>
      <point x="208" y="344" type="curve" smooth="yes"/>
      <point x="209" y="350"/>
      <point x="215" y="353"/>
      <point x="226" y="353" type="curve" smooth="yes"/>
      <point x="241" y="353" type="line"/>
      <point x="243" y="353"/>
      <point x="245" y="355"/>
      <point x="247" y="358" type="curve" smooth="yes"/>
      <point x="251" y="363"/>
      <point x="253" y="369"/>
      <point x="253" y="374" type="curve" smooth="yes"/>
      <point x="253" y="382"/>
      <point x="250" y="388"/>
      <point x="245" y="388" type="curve" smooth="yes"/>
      <point x="239" y="388"/>
      <point x="221" y="385"/>
      <point x="212" y="385" type="curve" smooth="yes"/>
      <point x="200" y="385"/>
      <point x="191" y="386"/>
      <point x="172" y="395" type="curve" smooth="yes"/>
      <point x="156" y="403"/>
      <point x="139" y="416"/>
      <point x="116" y="416" type="curve" smooth="yes"/>
      <point x="64" y="416"/>
      <point x="17" y="351"/>
      <point x="17" y="258" type="curve" smooth="yes"/>
      <point x="17" y="176"/>
      <point x="63" y="106"/>
      <point x="109" y="106" type="curve" smooth="yes"/>
      <point x="161" y="106"/>
      <point x="204" y="193"/>
    </contour>
  </outline>
</glyph>
<glyph name="j" format="1">
  <advance width="157"/>
  <unicode hex="006A"/>
  <outline>
    <contour>
      <point x="92" y="-152" type="curve" smooth="yes"/>
      <point x="110" y="-72"/>
      <point x="110" y="29"/>
      <point x="110" y="91" type="curve" smooth="yes"/>
      <point x="110" y="275" type="line" smooth="yes"/>
      <point x="110" y="320"/>
      <point x="112" y="388"/>
      <point x="114" y="417" type="curve"/>
      <point x="115" y="430"/>
      <point x="112" y="434"/>
      <point x="106" y="434" type="curve" smooth="yes"/>
      <point x="104" y="434"/>
      <point x="98" y="430"/>
      <point x="94" y="426" type="curve" smooth="yes"/>
      <point x="81" y="414"/>
      <point x="68" y="392"/>
      <point x="36" y="375" type="curve" smooth="yes"/>
      <point x="30" y="372"/>
      <point x="28" y="369"/>
      <point x="28" y="364" type="curve" smooth="yes"/>
      <point x="28" y="359"/>
      <point x="29" y="355"/>
      <point x="36" y="351" type="curve" smooth="yes"/>
      <point x="50" y="346"/>
      <point x="55" y="330"/>
      <point x="55" y="296" type="curve" smooth="yes"/>
      <point x="55" y="60" type="line" smooth="yes"/>
      <point x="55" y="-9"/>
      <point x="55" y="-145"/>
      <point x="38" y="-206" type="curve" smooth="yes"/>
      <point x="27" y="-246"/>
      <point x="15" y="-254"/>
      <point x="2" y="-260" type="curve"/>
      <point x="1" y="-261"/>
      <point x="-4" y="-269"/>
      <point x="-4" y="-277" type="curve" smooth="yes"/>
      <point x="-4" y="-284"/>
      <point x="7" y="-287"/>
      <point x="12" y="-287" type="curve" smooth="yes"/>
      <point x="36" y="-287"/>
      <point x="76" y="-220"/>
    </contour>
    <contour>
      <point x="125" y="566" type="curve" smooth="yes"/>
      <point x="125" y="592"/>
      <point x="107" y="611"/>
      <point x="81" y="611" type="curve" smooth="yes"/>
      <point x="56" y="611"/>
      <point x="37" y="592"/>
      <point x="37" y="566" type="curve" smooth="yes"/>
      <point x="37" y="541"/>
      <point x="56" y="522"/>
      <point x="81" y="522" type="curve" smooth="yes"/>
      <point x="107" y="522"/>
      <point x="125" y="541"/>
    </contour>
  </outline>
</glyph>
<glyph name="n" format="1">
  <advance width="300"/>
  <unicode hex="006E"/>
  <outline>
    <contour>
      <point x="76" y="1" type="curve" smooth="yes"/>
      <point x="98" y="1"/>
      <point x="100" y="-3"/>
      <point x="126" y="-3" type="curve" smooth="yes"/>
      <point x="133" y="-3"/>
      <point x="138" y="0"/>
      <point x="138" y="6" type="curve" smooth="yes"/>
      <point x="138" y="13"/>
      <point x="135" y="16"/>
      <point x="126" y="20" type="curve" smooth="yes"/>
      <point x="115" y="24"/>
      <point x="103" y="29"/>
      <point x="103" y="52" type="curve" smooth="yes"/>
      <point x="103" y="306" type="line" smooth="yes"/>
      <point x="103" y="311"/>
      <point x="104" y="322"/>
      <point x="106" y="327" type="curve" smooth="yes"/>
      <point x="114" y="353"/>
      <point x="134" y="367"/>
      <point x="156" y="367" type="curve" smooth="yes"/>
      <point x="182" y="367"/>
      <point x="197" y="334"/>
      <point x="197" y="275" type="curve" smooth="yes"/>
      <point x="197" y="52" type="line" smooth="yes"/>
      <point x="197" y="29"/>
      <point x="185" y="25"/>
      <point x="174" y="20" type="curve" smooth="yes"/>
      <point x="168" y="17"/>
      <point x="161" y="13"/>
      <point x="161" y="5" type="curve" smooth="yes"/>
      <point x="161" y="-2"/>
      <point x="170" y="-3"/>
      <point x="174" y="-3" type="curve" smooth="yes"/>
      <point x="200" y="-3"/>
      <point x="204" y="1"/>
      <point x="225" y="1" type="curve" smooth="yes"/>
      <point x="246" y="1"/>
      <point x="251" y="-3"/>
      <point x="274" y="-3" type="curve" smooth="yes"/>
      <point x="279" y="-3"/>
      <point x="287" y="-2"/>
      <point x="287" y="5" type="curve" smooth="yes"/>
      <point x="287" y="13"/>
      <point x="281" y="16"/>
      <point x="275" y="20" type="curve"/>
      <point x="264" y="25"/>
      <point x="251" y="29"/>
      <point x="251" y="52" type="curve" smooth="yes"/>
      <point x="251" y="278" type="line" smooth="yes"/>
      <point x="251" y="354"/>
      <point x="226" y="414"/>
      <point x="191" y="414" type="curve" smooth="yes"/>
      <point x="157" y="414"/>
      <point x="130" y="395"/>
      <point x="105" y="358" type="curve"/>
      <point x="104" y="360"/>
      <point x="104" y="365"/>
      <point x="104" y="370" type="curve" smooth="yes"/>
      <point x="104" y="380"/>
      <point x="106" y="409"/>
      <point x="106" y="417" type="curve" smooth="yes"/>
      <point x="106" y="423"/>
      <point x="105" y="429"/>
      <point x="98" y="429" type="curve" smooth="yes"/>
      <point x="93" y="429"/>
      <point x="90" y="426"/>
      <point x="87" y="423" type="curve" smooth="yes"/>
      <point x="68" y="408"/>
      <point x="48" y="393"/>
      <point x="30" y="378" type="curve" smooth="yes"/>
      <point x="23" y="375"/>
      <point x="21" y="370"/>
      <point x="21" y="365" type="curve" smooth="yes"/>
      <point x="21" y="359"/>
      <point x="22" y="355"/>
      <point x="29" y="352" type="curve" smooth="yes"/>
      <point x="45" y="345"/>
      <point x="48" y="311"/>
      <point x="48" y="280" type="curve" smooth="yes"/>
      <point x="48" y="52" type="line" smooth="yes"/>
      <point x="48" y="29"/>
      <point x="36" y="25"/>
      <point x="25" y="20" type="curve" smooth="yes"/>
      <point x="17" y="16"/>
      <point x="13" y="15"/>
      <point x="13" y="6" type="curve" smooth="yes"/>
      <point x="13" y="0"/>
      <point x="18" y="-3"/>
      <point x="25" y="-3" type="curve" smooth="yes"/>
      <point x="50" y="-3"/>
      <point x="54" y="1"/>
    </contour>
  </outline>
</glyph>
<glyph name="s" format="1">
  <advance width="221"/>
  <unicode hex="0073"/>
  <outline>
    <contour>
      <point x="205" y="105" type="curve" smooth="yes"/>
      <point x="205" y="160"/>
      <point x="185" y="183"/>
      <point x="141" y="222" type="curve" smooth="yes"/>
      <point x="86" y="272"/>
      <point x="78" y="293"/>
      <point x="78" y="327" type="curve" smooth="yes"/>
      <point x="78" y="369"/>
      <point x="102" y="390"/>
      <point x="123" y="390" type="curve" smooth="yes"/>
      <point x="144" y="390"/>
      <point x="158" y="366"/>
      <point x="168" y="318" type="curve" smooth="yes"/>
      <point x="170" y="309"/>
      <point x="180" y="309"/>
      <point x="185" y="309" type="curve" smooth="yes"/>
      <point x="188" y="309"/>
      <point x="195" y="311"/>
      <point x="195" y="316" type="curve" smooth="yes"/>
      <point x="195" y="344"/>
      <point x="185" y="380"/>
      <point x="180" y="395" type="curve"/>
      <point x="170" y="404"/>
      <point x="152" y="414"/>
      <point x="126" y="414" type="curve" smooth="yes"/>
      <point x="67" y="414"/>
      <point x="34" y="365"/>
      <point x="34" y="305" type="curve" smooth="yes"/>
      <point x="34" y="259"/>
      <point x="47" y="225"/>
      <point x="96" y="181" type="curve" smooth="yes"/>
      <point x="138" y="143"/>
      <point x="152" y="123"/>
      <point x="152" y="84" type="curve" smooth="yes"/>
      <point x="152" y="41"/>
      <point x="126" y="9"/>
      <point x="102" y="9" type="curve" smooth="yes"/>
      <point x="79" y="9"/>
      <point x="52" y="35"/>
      <point x="43" y="102" type="curve"/>
      <point x="41" y="109"/>
      <point x="38" y="111"/>
      <point x="29" y="111" type="curve" smooth="yes"/>
      <point x="20" y="111"/>
      <point x="17" y="108"/>
      <point x="17" y="101" type="curve"/>
      <point x="17" y="79"/>
      <point x="18" y="36"/>
      <point x="23" y="22" type="curve"/>
      <point x="41" y="-1"/>
      <point x="69" y="-14"/>
      <point x="98" y="-14" type="curve" smooth="yes"/>
      <point x="158" y="-14"/>
      <point x="205" y="35"/>
    </contour>
  </outline>
</glyph>
<glyph name="w" format="1">
  <advance width="401"/>
  <unicode hex="0077"/>
  <outline>
    <contour>
      <point x="144" y="-16" type="curve"/>
      <point x="195" y="234" type="line" smooth="yes"/>
      <point x="196" y="241"/>
      <point x="197" y="244"/>
      <point x="198" y="244" type="curve" smooth="yes"/>
      <point x="200" y="244"/>
      <point x="200" y="240"/>
      <point x="201" y="235" type="curve" smooth="yes"/>
      <point x="251" y="-16" type="line"/>
      <point x="255" y="-20"/>
      <point x="260" y="-23"/>
      <point x="265" y="-23" type="curve" smooth="yes"/>
      <point x="276" y="-23"/>
      <point x="281" y="-20"/>
      <point x="286" y="-16" type="curve"/>
      <point x="363" y="314" type="line" smooth="yes"/>
      <point x="372" y="350"/>
      <point x="382" y="377"/>
      <point x="394" y="382" type="curve"/>
      <point x="400" y="385"/>
      <point x="406" y="389"/>
      <point x="406" y="397" type="curve" smooth="yes"/>
      <point x="406" y="404"/>
      <point x="399" y="405"/>
      <point x="395" y="405" type="curve" smooth="yes"/>
      <point x="383" y="405"/>
      <point x="373" y="401"/>
      <point x="353" y="401" type="curve" smooth="yes"/>
      <point x="334" y="401"/>
      <point x="326" y="405"/>
      <point x="311" y="405" type="curve" smooth="yes"/>
      <point x="308" y="405"/>
      <point x="300" y="404"/>
      <point x="300" y="397" type="curve" smooth="yes"/>
      <point x="300" y="389"/>
      <point x="307" y="385"/>
      <point x="314" y="382" type="curve" smooth="yes"/>
      <point x="326" y="378"/>
      <point x="333" y="362"/>
      <point x="333" y="338" type="curve" smooth="yes"/>
      <point x="333" y="329"/>
      <point x="332" y="312"/>
      <point x="330" y="301" type="curve" smooth="yes"/>
      <point x="288" y="107" type="line" smooth="yes"/>
      <point x="287" y="100"/>
      <point x="286" y="97"/>
      <point x="284" y="97" type="curve" smooth="yes"/>
      <point x="282" y="97"/>
      <point x="281" y="101"/>
      <point x="280" y="108" type="curve" smooth="yes"/>
      <point x="239" y="312" type="line" smooth="yes"/>
      <point x="237" y="324"/>
      <point x="235" y="335"/>
      <point x="235" y="344" type="curve" smooth="yes"/>
      <point x="235" y="367"/>
      <point x="243" y="376"/>
      <point x="254" y="381" type="curve" smooth="yes"/>
      <point x="260" y="385"/>
      <point x="266" y="388"/>
      <point x="266" y="397" type="curve" smooth="yes"/>
      <point x="266" y="404"/>
      <point x="260" y="405"/>
      <point x="257" y="405" type="curve" smooth="yes"/>
      <point x="243" y="405"/>
      <point x="228" y="401"/>
      <point x="206" y="401" type="curve" smooth="yes"/>
      <point x="184" y="401"/>
      <point x="171" y="405"/>
      <point x="160" y="405" type="curve" smooth="yes"/>
      <point x="156" y="405"/>
      <point x="149" y="404"/>
      <point x="149" y="397" type="curve" smooth="yes"/>
      <point x="149" y="388"/>
      <point x="155" y="385"/>
      <point x="161" y="381" type="curve" smooth="yes"/>
      <point x="178" y="373"/>
      <point x="184" y="356"/>
      <point x="184" y="338" type="curve" smooth="yes"/>
      <point x="185" y="320"/>
      <point x="180" y="301"/>
      <point x="177" y="281" type="curve" smooth="yes"/>
      <point x="145" y="115" type="line" smooth="yes"/>
      <point x="144" y="112"/>
      <point x="142" y="111"/>
      <point x="142" y="111" type="curve" smooth="yes"/>
      <point x="141" y="111"/>
      <point x="140" y="112"/>
      <point x="139" y="115" type="curve" smooth="yes"/>
      <point x="98" y="316" type="line" smooth="yes"/>
      <point x="97" y="324"/>
      <point x="96" y="333"/>
      <point x="96" y="342" type="curve" smooth="yes"/>
      <point x="96" y="361"/>
      <point x="99" y="378"/>
      <point x="108" y="382" type="curve"/>
      <point x="114" y="385"/>
      <point x="121" y="389"/>
      <point x="121" y="397" type="curve" smooth="yes"/>
      <point x="121" y="404"/>
      <point x="113" y="405"/>
      <point x="109" y="405" type="curve" smooth="yes"/>
      <point x="92" y="405"/>
      <point x="76" y="401"/>
      <point x="60" y="401" type="curve" smooth="yes"/>
      <point x="45" y="401"/>
      <point x="31" y="405"/>
      <point x="16" y="405" type="curve" smooth="yes"/>
      <point x="12" y="405"/>
      <point x="5" y="404"/>
      <point x="5" y="397" type="curve" smooth="yes"/>
      <point x="5" y="389"/>
      <point x="12" y="385"/>
      <point x="17" y="382" type="curve"/>
      <point x="28" y="376"/>
      <point x="38" y="359"/>
      <point x="44" y="333" type="curve" smooth="yes"/>
      <point x="111" y="-16" type="line"/>
      <point x="116" y="-20"/>
      <point x="124" y="-23"/>
      <point x="128" y="-23" type="curve" smooth="yes"/>
      <point x="138" y="-23"/>
      <point x="139" y="-20"/>
    </contour>
  </outline>
</glyph>
<glyph name="y" format="1">
  <advance width="262"/>
  <unicode hex="0079"/>
  <outline>
    <contour>
      <point x="94" y="-244" type="curve" smooth="yes"/>
      <point x="117" y="-149"/>
      <point x="144" y="-24"/>
      <point x="146" y="-15" type="curve" smooth="yes"/>
      <point x="222" y="315" type="line" smooth="yes"/>
      <point x="231" y="352"/>
      <point x="244" y="377"/>
      <point x="254" y="382" type="curve"/>
      <point x="264" y="387"/>
      <point x="267" y="390"/>
      <point x="267" y="397" type="curve" smooth="yes"/>
      <point x="267" y="404"/>
      <point x="262" y="405"/>
      <point x="253" y="405" type="curve" smooth="yes"/>
      <point x="243" y="405"/>
      <point x="239" y="401"/>
      <point x="216" y="401" type="curve" smooth="yes"/>
      <point x="196" y="401"/>
      <point x="183" y="405"/>
      <point x="174" y="405" type="curve" smooth="yes"/>
      <point x="168" y="405"/>
      <point x="162" y="405"/>
      <point x="162" y="398" type="curve" smooth="yes"/>
      <point x="162" y="391"/>
      <point x="161" y="390"/>
      <point x="173" y="385" type="curve" smooth="yes"/>
      <point x="187" y="379"/>
      <point x="192" y="368"/>
      <point x="192" y="342" type="curve" smooth="yes"/>
      <point x="192" y="330"/>
      <point x="190" y="314"/>
      <point x="188" y="299" type="curve"/>
      <point x="144" y="102" type="line" smooth="yes"/>
      <point x="144" y="100"/>
      <point x="144" y="100"/>
      <point x="143" y="100" type="curve" smooth="yes"/>
      <point x="143" y="100"/>
      <point x="143" y="100"/>
      <point x="143" y="102" type="curve" smooth="yes"/>
      <point x="98" y="313" type="line" smooth="yes"/>
      <point x="96" y="321"/>
      <point x="97" y="330"/>
      <point x="97" y="340" type="curve" smooth="yes"/>
      <point x="97" y="359"/>
      <point x="100" y="379"/>
      <point x="109" y="384" type="curve" smooth="yes"/>
      <point x="116" y="388"/>
      <point x="119" y="389"/>
      <point x="119" y="398" type="curve" smooth="yes"/>
      <point x="119" y="405"/>
      <point x="112" y="405"/>
      <point x="108" y="405" type="curve" smooth="yes"/>
      <point x="84" y="405"/>
      <point x="83" y="401"/>
      <point x="62" y="401" type="curve" smooth="yes"/>
      <point x="40" y="401"/>
      <point x="41" y="405"/>
      <point x="17" y="405" type="curve" smooth="yes"/>
      <point x="13" y="405"/>
      <point x="5" y="404"/>
      <point x="5" y="397" type="curve" smooth="yes"/>
      <point x="5" y="390"/>
      <point x="7" y="387"/>
      <point x="13" y="384" type="curve"/>
      <point x="23" y="377"/>
      <point x="35" y="359"/>
      <point x="42" y="329" type="curve" smooth="yes"/>
      <point x="111" y="6" type="line" smooth="yes"/>
      <point x="114" y="-12"/>
      <point x="114" y="-22"/>
      <point x="114" y="-33" type="curve" smooth="yes"/>
      <point x="114" y="-42"/>
      <point x="115" y="-52"/>
      <point x="112" y="-68" type="curve"/>
      <point x="98" y="-135"/>
      <point x="90" y="-159"/>
      <point x="79" y="-194" type="curve" smooth="yes"/>
      <point x="76" y="-202"/>
      <point x="73" y="-205"/>
      <point x="68" y="-205" type="curve" smooth="yes"/>
      <point x="63" y="-205"/>
      <point x="55" y="-199"/>
      <point x="44" y="-199" type="curve" smooth="yes"/>
      <point x="34" y="-199"/>
      <point x="20" y="-217"/>
      <point x="20" y="-244" type="curve" smooth="yes"/>
      <point x="20" y="-274"/>
      <point x="34" y="-285"/>
      <point x="54" y="-285" type="curve" smooth="yes"/>
      <point x="77" y="-285"/>
      <point x="88" y="-271"/>
    </contour>
  </outline>
</glyph>
<glyph name="braceleft" format="1">
  <advance width="261"/>
  <unicode hex="007B"/>
  <outline>
    <contour>
      <point x="225" y="-137" type="curve" smooth="yes"/>
      <point x="199" y="-128"/>
      <point x="180" y="-123"/>
      <point x="177" y="-104" type="curve" smooth="yes"/>
      <point x="158" y="-81"/>
      <point x="152" y="-58"/>
      <point x="152" y="18" type="curve" smooth="yes"/>
      <point x="152" y="90"/>
      <point x="152" y="133"/>
      <point x="137" y="181" type="curve" smooth="yes"/>
      <point x="136" y="230"/>
      <point x="112" y="273"/>
      <point x="79" y="280" type="curve"/>
      <point x="95" y="287"/>
      <point x="96" y="299"/>
      <point x="98" y="317" type="curve"/>
      <point x="132" y="342"/>
      <point x="153" y="392"/>
      <point x="153" y="458" type="curve" smooth="yes"/>
      <point x="153" y="520"/>
      <point x="164" y="560"/>
      <point x="191" y="612" type="curve" smooth="yes"/>
      <point x="195" y="675"/>
      <point x="211" y="686"/>
      <point x="230" y="694" type="curve" smooth="yes"/>
      <point x="233" y="697"/>
      <point x="235" y="699"/>
      <point x="233" y="706" type="curve" smooth="yes"/>
      <point x="208" y="711"/>
      <point x="178" y="705"/>
      <point x="173" y="681" type="curve" smooth="yes"/>
      <point x="131" y="660"/>
      <point x="87" y="622"/>
      <point x="87" y="536" type="curve" smooth="yes"/>
      <point x="87" y="469"/>
      <point x="82" y="427"/>
      <point x="69" y="378" type="curve" smooth="yes"/>
      <point x="65" y="329"/>
      <point x="67" y="305"/>
      <point x="38" y="296" type="curve" smooth="yes"/>
      <point x="27" y="290"/>
      <point x="28" y="282"/>
      <point x="30" y="278" type="curve" smooth="yes"/>
      <point x="41" y="271"/>
      <point x="55" y="255"/>
      <point x="65" y="238" type="curve" smooth="yes"/>
      <point x="93" y="215"/>
      <point x="87" y="180"/>
      <point x="87" y="111" type="curve" smooth="yes"/>
      <point x="87" y="41"/>
      <point x="109" y="-1"/>
      <point x="133" y="-55" type="curve" smooth="yes"/>
      <point x="136" y="-125"/>
      <point x="184" y="-146"/>
      <point x="228" y="-148" type="curve" smooth="yes"/>
      <point x="232" y="-146"/>
      <point x="230" y="-142"/>
    </contour>
  </outline>
</glyph>
<glyph name="asciitilde" format="1">
  <advance width="275"/>
  <unicode hex="007E"/>
  <outline>
    <contour>
      <point x="257" y="353" type="curve" smooth="yes"/>
      <point x="257" y="369"/>
      <point x="252" y="378"/>
      <point x="236" y="378" type="curve" smooth="yes"/>
      <point x="233" y="378"/>
      <point x="215" y="312"/>
      <point x="188" y="312" type="curve" smooth="yes"/>
      <point x="180" y="312"/>
      <point x="169" y="327"/>
      <point x="154" y="342" type="curve" smooth="yes"/>
      <point x="138" y="360"/>
      <point x="118" y="379"/>
      <point x="94" y="379" type="curve" smooth="yes"/>
      <point x="48" y="379"/>
      <point x="17" y="306"/>
      <point x="17" y="287" type="curve" smooth="yes"/>
      <point x="17" y="274"/>
      <point x="22" y="268"/>
      <point x="37" y="268" type="curve" smooth="yes"/>
      <point x="40" y="268"/>
      <point x="58" y="328"/>
      <point x="89" y="328" type="curve" smooth="yes"/>
      <point x="101" y="328"/>
      <point x="114" y="315"/>
      <point x="128" y="300" type="curve" smooth="yes"/>
      <point x="144" y="282"/>
      <point x="163" y="264"/>
      <point x="182" y="264" type="curve" smooth="yes"/>
      <point x="213" y="264"/>
      <point x="257" y="321"/>
    </contour>
  </outline>
</glyph>
